<svg width="32" height="32" viewBox="0 0 32 32" fill="none" xmlns="http://www.w3.org/2000/svg">
<g clip-path="url(#clip0_3_152)">
<path d="M32.0009 16C32.0009 7.16347 24.8375 2.09808e-05 16.001 2.09808e-05C7.16443 2.09808e-05 0.000976562 7.16347 0.000976562 16C0.000976562 23.5037 5.16673 29.7998 12.1357 31.5288V20.8893H8.83642V16H12.1357V13.8932C12.1357 8.44731 14.6003 5.92315 19.9468 5.92315C20.9604 5.92315 22.7095 6.12187 23.425 6.32066V10.7529C23.0474 10.7132 22.3915 10.6933 21.5766 10.6933C18.953 10.6933 17.9393 11.6871 17.9393 14.2709V16H23.1655L22.2677 20.8893H17.9393V31.8828C25.8616 30.9259 32.0009 24.1804 32.0009 16Z" fill="#0866FF"/>
<path d="M22.2677 20.8894L23.1656 16H17.9394V14.2708C17.9394 11.687 18.953 10.6933 21.5766 10.6933C22.3915 10.6933 23.0474 10.7131 23.425 10.7529V6.32066C22.7095 6.12188 20.9604 5.92309 19.9468 5.92309C14.6003 5.92309 12.1358 8.44732 12.1358 13.8932V16H8.83643V20.8894H12.1358V31.5288C13.3737 31.8359 14.6681 32 16.001 32C16.6572 32 17.3039 31.9596 17.9394 31.8828V20.8894H22.2677Z" fill="white"/>
</g>
<defs>
<clipPath id="clip0_3_152">
<rect width="32" height="32" fill="white" transform="translate(0.000976562)"/>
</clipPath>
</defs>
</svg>
