<svg width="32" height="32" viewBox="0 0 32 32" fill="none" xmlns="http://www.w3.org/2000/svg">
<path d="M16.0082 0.242424C9.42836 0.242424 7.50399 0.249212 7.12993 0.280242C5.77963 0.392485 4.93939 0.605091 4.02399 1.06085C3.31854 1.41115 2.76218 1.81721 2.21309 2.38642C1.21309 3.42448 0.607025 4.70158 0.387631 6.21964C0.280964 6.95661 0.249934 7.10691 0.243631 10.8713C0.241207 12.1261 0.243631 13.7775 0.243631 15.9925C0.243631 22.567 0.250904 24.4895 0.282419 24.8628C0.39151 26.1767 0.597571 27.0034 1.03393 27.9076C1.86787 29.6385 3.4606 30.9379 5.33696 31.4228C5.98666 31.5901 6.70424 31.6822 7.62545 31.7258C8.01575 31.7428 11.9939 31.7549 15.9745 31.7549C19.9551 31.7549 23.9358 31.7501 24.3164 31.7307C25.383 31.6805 26.0024 31.5973 26.6873 31.4204C28.5758 30.9331 30.1394 29.6531 30.9903 27.8979C31.4182 27.0155 31.6351 26.1573 31.7333 24.912C31.7547 24.6405 31.7636 20.3115 31.7636 15.9884C31.7636 11.6645 31.7539 7.34351 31.7326 7.072C31.6332 5.80655 31.4162 4.95564 30.9745 4.05624C30.6121 3.32 30.2097 2.77018 29.6254 2.208C28.5828 1.21212 27.3076 0.60606 25.7881 0.386909C25.0519 0.280485 24.9052 0.248969 21.1379 0.242424H16.0082Z" fill="url(#paint0_radial_3_153)"/>
<path d="M16.0082 0.242424C9.42836 0.242424 7.50399 0.249212 7.12993 0.280242C5.77963 0.392485 4.93939 0.605091 4.02399 1.06085C3.31854 1.41115 2.76218 1.81721 2.21309 2.38642C1.21309 3.42448 0.607025 4.70158 0.387631 6.21964C0.280964 6.95661 0.249934 7.10691 0.243631 10.8713C0.241207 12.1261 0.243631 13.7775 0.243631 15.9925C0.243631 22.567 0.250904 24.4895 0.282419 24.8628C0.39151 26.1767 0.597571 27.0034 1.03393 27.9076C1.86787 29.6385 3.4606 30.9379 5.33696 31.4228C5.98666 31.5901 6.70424 31.6822 7.62545 31.7258C8.01575 31.7428 11.9939 31.7549 15.9745 31.7549C19.9551 31.7549 23.9358 31.7501 24.3164 31.7307C25.383 31.6805 26.0024 31.5973 26.6873 31.4204C28.5758 30.9331 30.1394 29.6531 30.9903 27.8979C31.4182 27.0155 31.6351 26.1573 31.7333 24.912C31.7547 24.6405 31.7636 20.3115 31.7636 15.9884C31.7636 11.6645 31.7539 7.34351 31.7326 7.072C31.6332 5.80655 31.4162 4.95564 30.9745 4.05624C30.6121 3.32 30.2097 2.77018 29.6254 2.208C28.5828 1.21212 27.3076 0.60606 25.7881 0.386909C25.0519 0.280485 24.9052 0.248969 21.1379 0.242424H16.0082Z" fill="url(#paint1_radial_3_153)"/>
<path d="M16.001 4.36364C12.8407 4.36364 12.4441 4.37745 11.2029 4.43394C9.96413 4.49067 9.11856 4.68679 8.37868 4.97455C7.61334 5.27176 6.96413 5.66933 6.31734 6.31636C5.67007 6.96315 5.2725 7.61236 4.97431 8.37745C4.68583 9.11758 4.48947 9.96339 4.43371 11.2017C4.37819 12.4429 4.36365 12.8398 4.36365 16C4.36365 19.1602 4.37771 19.5556 4.43395 20.7968C4.49092 22.0356 4.68704 22.8812 4.97456 23.6211C5.27201 24.3864 5.66959 25.0356 6.31662 25.6824C6.96316 26.3297 7.61237 26.7282 8.37722 27.0255C9.11759 27.3132 9.96341 27.5093 11.202 27.5661C12.4432 27.6225 12.8395 27.6364 15.9995 27.6364C19.16 27.6364 19.5554 27.6225 20.7966 27.5661C22.0354 27.5093 22.882 27.3132 23.6223 27.0255C24.3874 26.7282 25.0356 26.3297 25.6822 25.6824C26.3295 25.0356 26.727 24.3864 27.0252 23.6213C27.3113 22.8812 27.5076 22.0354 27.5658 20.7971C27.6216 19.5559 27.6361 19.1602 27.6361 16C27.6361 12.8398 27.6216 12.4432 27.5658 11.2019C27.5076 9.96315 27.3113 9.11758 27.0252 8.3777C26.727 7.61236 26.3295 6.96315 25.6822 6.31636C25.0349 5.66909 24.3876 5.27151 23.6216 4.97455C22.8798 4.68679 22.0337 4.49067 20.7949 4.43394C19.5537 4.37745 19.1586 4.36364 15.9973 4.36364H16.001ZM14.9571 6.46061C15.2669 6.46012 15.6126 6.46061 16.001 6.46061C19.1079 6.46061 19.4761 6.47176 20.703 6.52751C21.8376 6.57939 22.4533 6.76897 22.8635 6.92824C23.4066 7.13915 23.7937 7.39127 24.2007 7.79854C24.608 8.20582 24.8601 8.5937 25.0715 9.13673C25.2308 9.54642 25.4206 10.1622 25.4723 11.2967C25.528 12.5234 25.5401 12.8919 25.5401 15.9973C25.5401 19.1028 25.528 19.4713 25.4723 20.6979C25.4204 21.8325 25.2308 22.4482 25.0715 22.8579C24.8606 23.401 24.608 23.7876 24.2007 24.1947C23.7935 24.6019 23.4068 24.8541 22.8635 25.065C22.4538 25.225 21.8376 25.4141 20.703 25.4659C19.4764 25.5217 19.1079 25.5338 16.001 25.5338C12.8938 25.5338 12.5256 25.5217 11.2989 25.4659C10.1644 25.4136 9.54862 25.224 9.13819 25.0647C8.59516 24.8538 8.20728 24.6017 7.80001 24.1944C7.39274 23.7872 7.14062 23.4002 6.92922 22.857C6.76995 22.4473 6.58013 21.8315 6.5285 20.697C6.47274 19.4703 6.46159 19.1018 6.46159 15.9944C6.46159 12.887 6.47274 12.5205 6.5285 11.2938C6.58037 10.1593 6.76995 9.54351 6.92922 9.13333C7.14013 8.5903 7.39274 8.20242 7.80001 7.79515C8.20728 7.38788 8.59516 7.13576 9.13819 6.92436C9.54837 6.76436 10.1644 6.57527 11.2989 6.52315C12.3724 6.47467 12.7884 6.46012 14.9571 6.4577V6.46061ZM22.2124 8.39273C21.4415 8.39273 20.816 9.01745 20.816 9.78861C20.816 10.5595 21.4415 11.185 22.2124 11.185C22.9833 11.185 23.6087 10.5595 23.6087 9.78861C23.6087 9.0177 22.9833 8.39224 22.2124 8.39224V8.39273ZM16.001 10.0242C12.7009 10.0242 10.0252 12.6999 10.0252 16C10.0252 19.3001 12.7009 21.9745 16.001 21.9745C19.3011 21.9745 21.9758 19.3001 21.9758 16C21.9758 12.6999 19.3011 10.0242 16.001 10.0242ZM16.001 12.1212C18.143 12.1212 19.8798 13.8577 19.8798 16C19.8798 18.1421 18.143 19.8788 16.001 19.8788C13.8587 19.8788 12.1222 18.1421 12.1222 16C12.1222 13.8577 13.8587 12.1212 16.001 12.1212Z" fill="white"/>
<defs>
<radialGradient id="paint0_radial_3_153" cx="0" cy="0" r="1" gradientUnits="userSpaceOnUse" gradientTransform="translate(8.61538 34.182) rotate(-90) scale(31.2312 29.0554)">
<stop stop-color="#FFDD55"/>
<stop offset="0.1" stop-color="#FFDD55"/>
<stop offset="0.5" stop-color="#FF543E"/>
<stop offset="1" stop-color="#C837AB"/>
</radialGradient>
<radialGradient id="paint1_radial_3_153" cx="0" cy="0" r="1" gradientUnits="userSpaceOnUse" gradientTransform="translate(-5.03739 2.51253) rotate(78.6776) scale(13.9606 57.5608)">
<stop stop-color="#3771C8"/>
<stop offset="0.128" stop-color="#3771C8"/>
<stop offset="1" stop-color="#6600FF" stop-opacity="0"/>
</radialGradient>
</defs>
</svg>
