<svg width="24" height="24" viewBox="0 0 24 24" fill="none" xmlns="http://www.w3.org/2000/svg">
<mask id="mask0_79_1150" style="mask-type:alpha" maskUnits="userSpaceOnUse" x="0" y="0" width="25" height="24">
<rect width="24.0007" height="24" fill="#D9D9D9"/>
</mask>
<g mask="url(#mask0_79_1150)">
<path d="M17.0005 22C16.1671 22 15.4587 21.7083 14.8754 21.125C14.292 20.5417 14.0004 19.8333 14.0004 19C14.0004 18.9 14.0254 18.6667 14.0754 18.3L7.05015 14.2C6.78348 14.45 6.47513 14.6458 6.12512 14.7875C5.77511 14.9292 5.4001 15 5.00009 15C4.16673 15 3.45838 14.7083 2.87503 14.125C2.29168 13.5417 2 12.8333 2 12C2 11.1667 2.29168 10.4583 2.87503 9.875C3.45838 9.29167 4.16673 9 5.00009 9C5.4001 9 5.77511 9.07083 6.12512 9.2125C6.47513 9.35417 6.78348 9.55 7.05015 9.8L14.0754 5.7C14.042 5.58333 14.0212 5.47083 14.0129 5.3625C14.0045 5.25417 14.0004 5.13333 14.0004 5C14.0004 4.16667 14.292 3.45833 14.8754 2.875C15.4587 2.29167 16.1671 2 17.0005 2C17.8338 2 18.5422 2.29167 19.1255 2.875C19.7089 3.45833 20.0005 4.16667 20.0005 5C20.0005 5.83333 19.7089 6.54167 19.1255 7.125C18.5422 7.70833 17.8338 8 17.0005 8C16.6004 8 16.2254 7.92917 15.8754 7.7875C15.5254 7.64583 15.2171 7.45 14.9504 7.2L7.92518 11.3C7.95851 11.4167 7.97935 11.5292 7.98768 11.6375C7.99601 11.7458 8.00018 11.8667 8.00018 12C8.00018 12.1333 7.99601 12.2542 7.98768 12.3625C7.97935 12.4708 7.95851 12.5833 7.92518 12.7L14.9504 16.8C15.2171 16.55 15.5254 16.3542 15.8754 16.2125C16.2254 16.0708 16.6004 16 17.0005 16C17.8338 16 18.5422 16.2917 19.1255 16.875C19.7089 17.4583 20.0005 18.1667 20.0005 19C20.0005 19.8333 19.7089 20.5417 19.1255 21.125C18.5422 21.7083 17.8338 22 17.0005 22ZM17.0005 20C17.2838 20 17.5213 19.9042 17.713 19.7125C17.9046 19.5208 18.0005 19.2833 18.0005 19C18.0005 18.7167 17.9046 18.4792 17.713 18.2875C17.5213 18.0958 17.2838 18 17.0005 18C16.7171 18 16.4796 18.0958 16.2879 18.2875C16.0963 18.4792 16.0004 18.7167 16.0004 19C16.0004 19.2833 16.0963 19.5208 16.2879 19.7125C16.4796 19.9042 16.7171 20 17.0005 20ZM5.00009 13C5.28343 13 5.52094 12.9042 5.71261 12.7125C5.90428 12.5208 6.00012 12.2833 6.00012 12C6.00012 11.7167 5.90428 11.4792 5.71261 11.2875C5.52094 11.0958 5.28343 11 5.00009 11C4.71675 11 4.47924 11.0958 4.28757 11.2875C4.0959 11.4792 4.00006 11.7167 4.00006 12C4.00006 12.2833 4.0959 12.5208 4.28757 12.7125C4.47924 12.9042 4.71675 13 5.00009 13ZM17.0005 6C17.2838 6 17.5213 5.90417 17.713 5.7125C17.9046 5.52083 18.0005 5.28333 18.0005 5C18.0005 4.71667 17.9046 4.47917 17.713 4.2875C17.5213 4.09583 17.2838 4 17.0005 4C16.7171 4 16.4796 4.09583 16.2879 4.2875C16.0963 4.47917 16.0004 4.71667 16.0004 5C16.0004 5.28333 16.0963 5.52083 16.2879 5.7125C16.4796 5.90417 16.7171 6 17.0005 6Z" fill="#1C1B1F"/>
</g>
</svg>
