<svg width="48" height="48" viewBox="0 0 48 48" fill="none" xmlns="http://www.w3.org/2000/svg">
<path d="M19.0768 47.2736C19.5022 47.7391 20.0925 48 20.7005 48H34.6713C42.0347 48 47.9994 41.6058 47.9994 33.7121V14.2879C48.0005 6.39418 42.0347 0 34.6724 0H13.3282C5.96471 0 0 6.39418 0 14.2879V25.8101C0 26.4611 0.242776 27.0846 0.66819 27.5501L19.0768 47.2736ZM5.25197 15.797C5.25197 12.0129 7.22202 8.72423 10.1064 7.02366C10.1409 7.01409 10.1676 6.99614 10.1932 6.97699C10.289 6.92074 10.3848 6.88364 10.4806 6.8274C11.5786 6.30442 12.7725 6.01481 14.0275 6.01481L34.022 5.96814H34.2659C34.4051 5.96814 34.5443 5.98729 34.6846 5.99566C34.7459 6.00524 34.8071 6.00524 34.8673 6.01481C35.3729 6.05191 35.8874 6.1273 36.3662 6.29485C36.4798 6.34152 36.5845 6.38819 36.6892 6.43487C36.8373 6.49111 36.9854 6.53779 37.1246 6.60361C37.1859 6.63113 37.246 6.66943 37.3073 6.69695C37.4298 6.7532 37.5423 6.81782 37.6648 6.88364C37.8652 6.99614 38.0657 7.10743 38.2661 7.23907C38.3797 7.31327 38.4933 7.38867 38.6058 7.46286C38.7973 7.60288 38.9889 7.75247 39.1726 7.90207C39.2684 7.98584 39.3642 8.06123 39.46 8.145C39.686 8.34127 39.8954 8.55668 40.0959 8.78047C40.1393 8.82715 40.1916 8.86425 40.2351 8.92049C40.479 9.19096 40.705 9.48057 40.9144 9.77975C40.9756 9.86352 41.028 9.95687 41.0892 10.0502C41.2374 10.2656 41.3766 10.499 41.508 10.7324C41.5692 10.8532 41.6305 10.9753 41.6906 11.0962C41.8042 11.3116 41.9 11.5354 41.9957 11.7592C42.0481 11.8992 42.1004 12.0296 42.1528 12.1613C42.1873 12.2546 42.2307 12.3384 42.2575 12.4317C42.2664 12.4592 42.2575 12.488 42.2664 12.5155C42.3365 12.7213 42.4145 12.9272 42.4668 13.151L14.0353 13.2168C12.5976 13.2168 11.3949 14.8707 11.3949 16.8417C11.3949 18.8127 12.5976 20.4666 14.0275 20.4666L33.3861 20.3924C38.5457 20.3924 42.7475 25.2512 42.7475 31.2205V31.5101C42.7475 37.4807 38.5468 42.3382 33.395 42.3382H21.1928V38.237C21.1928 37.574 21.1404 36.9098 21.0357 36.2756C20.9834 35.8926 20.9132 35.5192 20.8264 35.1446H33.395C34.8238 35.1446 36.0277 33.4812 36.0277 31.5101V31.2205C36.0277 29.2591 34.825 27.5956 33.395 27.5956L16.0065 27.6614C15.4831 27.2785 14.934 26.9326 14.3594 26.643C12.7992 25.8304 11.0474 25.3721 9.19986 25.3721H8.30226C7.30889 24.4745 6.47142 23.3544 5.86225 22.0738C5.43573 21.1859 5.25197 20.1866 5.25197 19.1873V15.7958V15.797ZM2.20169 27.1014H9.20098C10.8135 27.1014 12.3392 27.4939 13.7068 28.194C16.7315 29.7641 18.9454 32.8469 19.4677 36.5376C19.5457 37.0893 19.5902 37.659 19.5902 38.2382V45.731C19.5902 45.9272 19.3719 46.0206 19.2416 45.8902L2.06137 27.4664C1.93107 27.3359 2.02684 27.1025 2.20057 27.1025L2.20169 27.1014Z" fill="white"/>
</svg>
